<svg width="20" height="21" viewBox="0 0 20 21" fill="none" xmlns="http://www.w3.org/2000/svg">
<path d="M3.57994 10.3867L10.6566 3.11422C10.7149 3.05562 10.7609 2.98604 10.7921 2.90951C10.8233 2.83298 10.839 2.75103 10.8383 2.66839C10.8377 2.58575 10.8206 2.50407 10.7881 2.42808C10.7557 2.35208 10.7085 2.28327 10.6492 2.22564C10.59 2.16801 10.5199 2.1227 10.4431 2.09233C10.3662 2.06195 10.2841 2.04712 10.2015 2.0487C10.1188 2.05027 10.0374 2.06821 9.96171 2.10149C9.88606 2.13477 9.81777 2.18271 9.76077 2.24256L2.26077 9.95089C2.14726 10.0676 2.08374 10.2239 2.08374 10.3867C2.08374 10.5495 2.14726 10.7059 2.26077 10.8226L9.76077 18.5309C9.81777 18.5907 9.88606 18.6387 9.96171 18.672C10.0374 18.7052 10.1188 18.7232 10.2015 18.7248C10.2841 18.7263 10.3662 18.7115 10.4431 18.6811C10.5199 18.6508 10.59 18.6054 10.6492 18.5478C10.7085 18.4902 10.7557 18.4214 10.7881 18.3454C10.8206 18.2694 10.8377 18.1877 10.8383 18.1051C10.839 18.0224 10.8233 17.9405 10.7921 17.8639C10.7609 17.7874 10.7149 17.7178 10.6566 17.6592L3.57994 10.3867Z" fill="#424242"/>
</svg>
