<svg width="12" height="12" viewBox="0 0 12 12" fill="none" xmlns="http://www.w3.org/2000/svg">
<path d="M6.5996 5.91605L11.102 1.40925C11.1814 1.32943 11.226 1.22138 11.2259 1.10877C11.2258 0.996161 11.1811 0.888171 11.1016 0.808453C10.9424 0.650053 10.662 0.649253 10.5012 0.809253L6 5.31605L1.4972 0.808053C1.3372 0.650053 1.0568 0.650853 0.897596 0.808853C0.858081 0.84821 0.8268 0.895044 0.805579 0.94662C0.784358 0.998197 0.773622 1.05348 0.773996 1.10925C0.773996 1.22285 0.817996 1.32925 0.897596 1.40805L5.4 5.91565L0.897996 10.4237C0.81855 10.5036 0.77406 10.6118 0.774285 10.7245C0.77451 10.8372 0.819432 10.9452 0.899196 11.0249C0.976396 11.1013 1.0856 11.1453 1.1984 11.1453H1.2008C1.314 11.1449 1.4232 11.1005 1.4988 11.0233L6 6.51645L10.5028 11.0245C10.5824 11.1037 10.6888 11.1477 10.8016 11.1477C10.8573 11.1477 10.9126 11.1368 10.9641 11.1155C11.0156 11.0941 11.0624 11.0629 11.1018 11.0235C11.1412 10.984 11.1725 10.9372 11.1938 10.8857C11.2151 10.8342 11.226 10.779 11.226 10.7233C11.226 10.6101 11.182 10.5033 11.102 10.4245L6.5996 5.91605Z" fill="#9E9E9E"/>
</svg>
