<svg width="27" height="28" viewBox="0 0 27 28" fill="none" xmlns="http://www.w3.org/2000/svg">
<path d="M11.25 0.5C9.35812 0.499464 7.49667 0.97604 5.83782 1.88565C4.17897 2.79525 2.7763 4.10851 1.75956 5.70394C0.742821 7.29937 0.144845 9.12544 0.0209486 11.0132C-0.102948 12.9011 0.251237 14.7896 1.05074 16.5042L0.0224898 21.6545C-0.013638 21.836 -0.00444454 22.0236 0.049255 22.2006C0.102955 22.3777 0.199502 22.5388 0.330344 22.6696C0.461185 22.8005 0.622279 22.897 0.799353 22.9507C0.976428 23.0044 1.16401 23.0136 1.34549 22.9775L6.49349 21.9492C8.01972 22.6597 9.68592 23.0185 11.3693 22.9993C13.0526 22.9801 14.7102 22.5833 16.2198 21.8382C17.7294 21.0932 19.0526 20.0188 20.0918 18.6944C21.1309 17.3699 21.8596 15.8291 22.2241 14.1856C22.5885 12.542 22.5795 10.8377 22.1976 9.19809C21.8158 7.55851 21.0708 6.02553 20.0176 4.71217C18.9645 3.3988 17.63 2.33854 16.1126 1.60953C14.5951 0.880524 12.9335 0.501363 11.25 0.5ZM2.24999 11.75C2.25049 9.78883 2.89156 7.8815 4.0757 6.31817C5.25983 4.75484 6.9222 3.62108 8.80991 3.08937C10.6976 2.55766 12.7073 2.6571 14.5333 3.37257C16.3593 4.08804 17.9017 5.38037 18.9257 7.05296C19.9497 8.72555 20.3994 10.6868 20.2063 12.6385C20.0131 14.5901 19.1878 16.4253 17.8559 17.8647C16.5239 19.3042 14.7582 20.2692 12.8274 20.613C10.8966 20.9567 8.90639 20.6604 7.15949 19.769C6.93342 19.6535 6.67491 19.6178 6.42599 19.6677L2.55824 20.4417L3.33224 16.5717C3.3817 16.3235 3.34603 16.0659 3.23099 15.8405C2.58547 14.5736 2.24928 13.1718 2.24999 11.75ZM15.75 27.5C13.1787 27.5042 10.6842 26.624 8.68499 25.007C10.3506 25.3292 12.0619 25.3345 13.7295 25.0228C15.7918 25.4978 17.9555 25.2309 19.8405 24.269C20.0666 24.1535 20.3251 24.1178 20.574 24.1677L24.4417 24.9417L23.6677 21.0717C23.6183 20.8235 23.6539 20.5659 23.769 20.3405C24.7309 18.4555 24.9978 16.2918 24.5227 14.2295C24.8339 12.5634 24.8286 10.8536 24.507 9.1895C26.123 11.1875 27.0032 13.6803 27 16.25C27.0013 17.8932 26.6427 19.5168 25.9492 21.0065L26.9775 26.1545C27.0136 26.336 27.0044 26.5236 26.9507 26.7006C26.897 26.8777 26.8005 27.0388 26.6696 27.1696C26.5388 27.3005 26.3777 27.397 26.2006 27.4507C26.0236 27.5044 25.836 27.5136 25.6545 27.4775L20.5042 26.4492C19.0152 27.1424 17.3924 27.501 15.75 27.5Z" fill="#9E9E9E"/>
</svg>
