<svg width="28" height="28" viewBox="0 0 28 28" fill="none" xmlns="http://www.w3.org/2000/svg">
<path d="M11.75 0.5C9.85815 0.499464 7.9967 0.97604 6.33785 1.88565C4.679 2.79525 3.27633 4.10851 2.25959 5.70394C1.24285 7.29937 0.644875 9.12544 0.520979 11.0132C0.397083 12.9011 0.751267 14.7896 1.55077 16.5042L0.52252 21.6545C0.486393 21.836 0.495586 22.0236 0.549286 22.2006C0.602985 22.3777 0.699533 22.5388 0.830374 22.6696C0.961215 22.8005 1.12231 22.897 1.29938 22.9507C1.47646 23.0044 1.66404 23.0136 1.84552 22.9775L6.99352 21.9492C8.51975 22.6597 10.186 23.0185 11.8693 22.9993C13.5527 22.9801 15.2102 22.5833 16.7199 21.8382C18.2295 21.0932 19.5526 20.0188 20.5918 18.6944C21.631 17.3699 22.3596 15.8291 22.7241 14.1856C23.0886 12.542 23.0795 10.8377 22.6977 9.19809C22.3158 7.55851 21.5708 6.02553 20.5177 4.71217C19.4645 3.3988 18.13 2.33854 16.6126 1.60953C15.0952 0.880524 13.4335 0.501363 11.75 0.5ZM2.75002 11.75C2.75052 9.78883 3.3916 7.8815 4.57573 6.31817C5.75986 4.75484 7.42223 3.62108 9.30994 3.08937C11.1977 2.55766 13.2074 2.6571 15.0334 3.37257C16.8594 4.08804 18.4017 5.38037 19.4257 7.05296C20.4497 8.72555 20.8994 10.6868 20.7063 12.6385C20.5132 14.5901 19.6879 16.4253 18.3559 17.8647C17.024 19.3042 15.2583 20.2692 13.3275 20.613C11.3967 20.9567 9.40642 20.6604 7.65952 19.769C7.43345 19.6534 7.17494 19.6178 6.92602 19.6678L3.05827 20.4417L3.83227 16.5717C3.88173 16.3235 3.84606 16.0659 3.73102 15.8405C3.0855 14.5736 2.74931 13.1718 2.75002 11.75ZM16.25 27.5C13.6787 27.5042 11.1842 26.624 9.18502 25.007C10.8506 25.3292 12.562 25.3345 14.2295 25.0228C16.2918 25.4978 18.4555 25.2309 20.3405 24.269C20.5666 24.1534 20.8251 24.1178 21.074 24.1678L24.9418 24.9417L24.1678 21.0717C24.1183 20.8235 24.154 20.5659 24.269 20.3405C25.2309 18.4555 25.4978 16.2918 25.0228 14.2295C25.334 12.5634 25.3286 10.8536 25.007 9.1895C26.6231 11.1875 27.5032 13.6803 27.5 16.25C27.5013 17.8932 27.1427 19.5168 26.4493 21.0065L27.4775 26.1545C27.5136 26.336 27.5045 26.5236 27.4508 26.7006C27.3971 26.8777 27.3005 27.0388 27.1697 27.1696C27.0388 27.3005 26.8777 27.397 26.7007 27.4507C26.5236 27.5044 26.336 27.5136 26.1545 27.4775L21.0043 26.4492C19.5152 27.1424 17.8925 27.501 16.25 27.5Z" fill="#222222"/>
</svg>
