<svg width="28" height="28" viewBox="0 0 28 28" fill="none" xmlns="http://www.w3.org/2000/svg">
<path d="M9.18502 25.007C11.1842 26.624 13.6787 27.5042 16.25 27.5C17.9465 27.5 19.5575 27.1243 21.0043 26.4492L26.1545 27.4775C26.336 27.5136 26.5236 27.5044 26.7007 27.4507C26.8777 27.397 27.0388 27.3005 27.1697 27.1696C27.3005 27.0388 27.3971 26.8777 27.4508 26.7006C27.5045 26.5236 27.5136 26.336 27.4775 26.1545L26.4493 21.0065C27.1243 19.5598 27.5 17.9465 27.5 16.25C27.5037 13.6795 26.6235 11.1859 25.007 9.18725C25.3292 10.8528 25.3345 12.5642 25.0228 14.2317C25.4973 16.2933 25.2304 18.4561 24.269 20.3405C24.1535 20.5666 24.1178 20.8251 24.1678 21.074L24.9418 24.9417L21.0718 24.1677C20.8236 24.1183 20.5659 24.154 20.3405 24.269C18.4555 25.2309 16.2918 25.4978 14.2295 25.0228C12.562 25.3345 10.8506 25.3292 9.18502 25.007ZM11.75 0.5C9.85815 0.499464 7.9967 0.97604 6.33785 1.88565C4.679 2.79525 3.27633 4.10851 2.25959 5.70394C1.24285 7.29937 0.644875 9.12544 0.520979 11.0132C0.397083 12.9011 0.751267 14.7896 1.55077 16.5042L0.52252 21.6545C0.486393 21.836 0.495586 22.0236 0.549286 22.2006C0.602985 22.3777 0.699533 22.5388 0.830374 22.6696C0.961215 22.8005 1.12231 22.897 1.29938 22.9507C1.47646 23.0044 1.66404 23.0136 1.84552 22.9775L6.99352 21.9492C8.51975 22.6597 10.186 23.0185 11.8693 22.9993C13.5527 22.9801 15.2102 22.5833 16.7199 21.8382C18.2295 21.0932 19.5526 20.0188 20.5918 18.6944C21.631 17.3699 22.3596 15.8291 22.7241 14.1856C23.0886 12.542 23.0795 10.8377 22.6977 9.19809C22.3158 7.55851 21.5708 6.02553 20.5177 4.71217C19.4645 3.3988 18.13 2.33854 16.6126 1.60953C15.0952 0.880524 13.4335 0.501363 11.75 0.5Z" fill="#222222"/>
</svg>
