<svg width="22" height="23" viewBox="0 0 22 23" fill="none" xmlns="http://www.w3.org/2000/svg">
<path d="M11.8244 11.883L18.0152 5.68614C18.1244 5.57638 18.1857 5.42781 18.1856 5.27297C18.1855 5.11813 18.124 4.96965 18.0147 4.86004C17.7958 4.64224 17.4102 4.64114 17.1891 4.86114L11 11.058L4.80862 4.85949C4.58862 4.64224 4.20307 4.64334 3.98417 4.86059C3.92984 4.9147 3.88683 4.9791 3.85765 5.05002C3.82847 5.12093 3.81371 5.19695 3.81422 5.27364C3.81422 5.42984 3.87472 5.57614 3.98417 5.68449L10.175 11.8824L3.98472 18.0809C3.87548 18.1909 3.81431 18.3396 3.81462 18.4946C3.81493 18.6496 3.8767 18.7981 3.98637 18.9076C4.09252 19.0126 4.24267 19.0731 4.39777 19.0731H4.40107C4.55672 19.0726 4.70687 19.0115 4.81082 18.9054L11 12.7085L17.1913 18.907C17.3008 19.0159 17.4471 19.0764 17.6022 19.0764C17.6788 19.0765 17.7547 19.0615 17.8256 19.0322C17.8964 19.0029 17.9608 18.9599 18.015 18.9057C18.0692 18.8515 18.1121 18.7871 18.1414 18.7163C18.1707 18.6455 18.1858 18.5695 18.1857 18.4929C18.1857 18.3372 18.1252 18.1904 18.0152 18.082L11.8244 11.883Z" fill="#424242"/>
</svg>
