<svg width="27" height="29" viewBox="0 0 27 29" fill="none" xmlns="http://www.w3.org/2000/svg">
<path d="M11.325 0.798209C11.9336 0.285242 12.704 0.00390625 13.5 0.00390625C14.296 0.00390625 15.0664 0.285242 15.675 0.798209L25.8 9.33621C26.5605 9.97821 27 10.9217 27 11.9162V25.8812C27 26.5774 26.7234 27.2451 26.2312 27.7374C25.7389 28.2296 25.0712 28.5062 24.375 28.5062H19.125C18.4288 28.5062 17.7611 28.2296 17.2688 27.7374C16.7766 27.2451 16.5 26.5774 16.5 25.8812V18.3707C16.5 18.2713 16.4605 18.1759 16.3902 18.1055C16.3198 18.0352 16.2245 17.9957 16.125 17.9957H10.875C10.7755 17.9957 10.6802 18.0352 10.6098 18.1055C10.5395 18.1759 10.5 18.2713 10.5 18.3707V25.8812C10.5 26.5774 10.2234 27.2451 9.73116 27.7374C9.23887 28.2296 8.57119 28.5062 7.875 28.5062H2.625C2.28028 28.5062 1.93894 28.4383 1.62046 28.3064C1.30198 28.1745 1.0126 27.9811 0.768845 27.7374C0.525091 27.4936 0.331735 27.2042 0.199816 26.8858C0.0678978 26.5673 0 26.2259 0 25.8812V11.9162C0 10.9217 0.4395 9.97821 1.2 9.33621L11.325 0.798209ZM14.2245 2.51871C14.0217 2.34798 13.7651 2.25436 13.5 2.25436C13.2349 2.25436 12.9783 2.34798 12.7755 2.51871L2.6505 11.0552C2.5252 11.1607 2.42445 11.2922 2.35527 11.4407C2.28609 11.5892 2.25017 11.7509 2.25 11.9147V25.8797C2.25 26.0867 2.418 26.2547 2.625 26.2547H7.875C7.97446 26.2547 8.06984 26.2152 8.14017 26.1449C8.21049 26.0745 8.25 25.9792 8.25 25.8797V18.3692C8.25 16.9187 9.426 15.7442 10.875 15.7442H16.125C17.574 15.7442 18.75 16.9187 18.75 18.3692V25.8797C18.75 26.0867 18.918 26.2547 19.125 26.2547H24.375C24.4745 26.2547 24.5698 26.2152 24.6402 26.1449C24.7105 26.0745 24.75 25.9792 24.75 25.8797V11.9147C24.7498 11.7509 24.7139 11.5892 24.6447 11.4407C24.5756 11.2922 24.4748 11.1607 24.3495 11.0552L14.2245 2.51871Z" fill="#9E9E9E"/>
</svg>
