<svg width="27" height="29" viewBox="0 0 27 29" fill="none" xmlns="http://www.w3.org/2000/svg">
<path d="M15.675 0.799674C15.0664 0.286707 14.296 0.00537109 13.5 0.00537109C12.704 0.00537109 11.9336 0.286707 11.325 0.799674L1.2 9.34217C0.824189 9.65891 0.522089 10.0539 0.314816 10.4995C0.107544 10.9452 0.000101593 11.4307 0 11.9222V25.8797C0 27.3287 1.176 28.5047 2.625 28.5047H7.125C7.82119 28.5047 8.48887 28.2281 8.98116 27.7358C9.47344 27.2435 9.75 26.5759 9.75 25.8797V19.8752C9.75 18.8552 10.563 18.0272 11.5755 18.0002H15.4245C15.9132 18.0131 16.3774 18.2163 16.7184 18.5665C17.0594 18.9168 17.2502 19.3864 17.25 19.8752V25.8797C17.25 27.3287 18.426 28.5047 19.875 28.5047H24.375C25.0712 28.5047 25.7389 28.2281 26.2312 27.7358C26.7234 27.2435 27 26.5759 27 25.8797V11.9207C26.9999 11.4292 26.8925 10.9437 26.6852 10.498C26.4779 10.0524 26.1758 9.65741 25.8 9.34067L15.675 0.799674Z" fill="#222222"/>
</svg>
