<svg width="13" height="13" viewBox="0 0 13 13" fill="none" xmlns="http://www.w3.org/2000/svg">
<path fill-rule="evenodd" clip-rule="evenodd" d="M6.5 1.8125C6.64918 1.8125 6.79226 1.87176 6.89775 1.97725C7.00324 2.08274 7.0625 2.22582 7.0625 2.375V5.9375H10.625C10.7742 5.9375 10.9173 5.99676 11.0227 6.10225C11.1282 6.20774 11.1875 6.35082 11.1875 6.5C11.1875 6.64918 11.1282 6.79226 11.0227 6.89775C10.9173 7.00324 10.7742 7.0625 10.625 7.0625H7.0625V10.625C7.0625 10.7742 7.00324 10.9173 6.89775 11.0227C6.79226 11.1282 6.64918 11.1875 6.5 11.1875C6.35082 11.1875 6.20774 11.1282 6.10225 11.0227C5.99676 10.9173 5.9375 10.7742 5.9375 10.625V7.0625H2.375C2.22582 7.0625 2.08274 7.00324 1.97725 6.89775C1.87176 6.79226 1.8125 6.64918 1.8125 6.5C1.8125 6.35082 1.87176 6.20774 1.97725 6.10225C2.08274 5.99676 2.22582 5.9375 2.375 5.9375H5.9375V2.375C5.9375 2.22582 5.99676 2.08274 6.10225 1.97725C6.20774 1.87176 6.35082 1.8125 6.5 1.8125Z" fill="#FAFAFA"/>
</svg>
