<svg width="300" height="45" viewBox="0 0 300 45" fill="none" xmlns="http://www.w3.org/2000/svg">
<path fill-rule="evenodd" clip-rule="evenodd" d="M6 0H294C297.3 0 300 2.7 300 6V39C300 42.3 297.3 45 294 45H6C2.7 45 0 42.3 0 39V6C0 2.7 2.7 0 6 0Z" fill="#FEE500"/>
<path opacity="0.9" fill-rule="evenodd" clip-rule="evenodd" d="M24 14C19 14 15 17.1 15 21C15 23.4 16.6 25.5 18.9 26.7L17.9 30.4C17.8 30.7 18.2 31 18.5 30.8L22.9 27.9C23.2334 27.9667 23.6 28 24 28C29 28 33 24.8 33 21C33 17.1 29 14 24 14Z" fill="black"/>
<path d="M120.5 17.1V18.1H125.4C125.3 18.9 125.2 19.6999 125 20.3999L119.9 20.8L120.1 21.8L124.6 21.3999C123.8 23.1999 122.3 24.7 119.8 26L120.5 26.8999C125.3 24.4999 126.6 20.9 126.6 17.1H120.5ZM132.2 21.1H130V15.7H128.8V29.1H130V22.1H132.2V21.1ZM134.3 17.1V18.1H139.2C139.1 18.9 139 19.6999 138.8 20.3999L133.6 20.8L133.8 21.8999L138.4 21.3999C137.6 23.1999 136.1 24.7 133.6 26L134.3 26.8999C139.1 24.4999 140.4 21 140.4 17.1H134.3ZM145.9 21.1H143.8V15.7H142.6V29.1H143.8V22.2H145.9V21.1ZM149.6 20C149.6 18.5 151.2 17.5 153.3 17.5C155.5 17.5 157 18.5 157 20C157 21.5 155.5 22.6 153.3 22.6C151.2 22.6 149.6 21.5 149.6 20ZM153.9 26.3V23.5C156.4 23.3 158.2 22 158.2 20C158.2 17.9 156.2 16.5 153.3 16.5C150.5 16.5 148.4 17.9 148.4 20C148.4 22 150.2 23.3 152.7 23.5V26.3H147.2V27.3H159.4V26.3H153.9ZM173 26.3999V23.8H177.3V22.8999H169V20.7H177V16.6H167.7V17.6H175.8V19.7H167.8V23.8H171.7V26.3999H166.2V27.3999H178.5V26.3999H173ZM189.4 18.3999C189.4 19.9999 189.4 22 188.9 24.8L190.1 24.8999C190.6 21.9999 190.6 20.0999 190.6 18.3999V17H181.4V18H189.4V18.3999ZM180.1 26.1V27.1H192.2V26.1H180.1ZM205 15.7H203.7V25.5H205V15.7ZM195.4 19.8999C195.4 18.5999 196.4 17.7 197.7 17.7C199.1 17.7 200.1 18.5999 200.1 19.8999C200.1 21.2999 199.1 22.2 197.7 22.2C196.4 22.2 195.4 21.2999 195.4 19.8999ZM201.3 19.8999C201.3 17.9999 199.7 16.6 197.7 16.6C195.7 16.6 194.2 17.9999 194.2 19.8999C194.2 21.8999 195.7 23.2 197.7 23.2C199.7 23.2 201.3 21.8999 201.3 19.8999ZM197.5 27.8V24.5H196.3V28.8H205.4V27.8H197.5Z" fill="#191919"/>
</svg>
