<svg width="135" height="36" viewBox="0 0 135 36" fill="none" xmlns="http://www.w3.org/2000/svg">
<path d="M23.808 12.6277C23.2279 8.86526 20.3439 6.57797 16.3992 6.57797C11.1119 6.57797 7.61464 10.6222 7.61464 17.7658C7.61464 25.0918 11.1616 28.9537 16.366 28.9537C20.2113 28.9537 23.1119 26.8321 23.808 23.1857L30.9351 23.2189C30.1395 29.484 24.8688 35.2023 16.25 35.2023C7.16713 35.2023 0.470995 28.8211 0.470995 17.7658C0.470995 6.69399 7.28315 0.329348 16.25 0.329348C24.0732 0.329348 29.9738 4.82106 30.9351 12.6277H23.808ZM40.4143 34.7382H32.8563L44.5911 0.793437H53.6574L65.3922 34.7382H57.8342L55.2817 26.915H42.9668L40.4143 34.7382ZM44.7569 21.3956H53.4751L49.2486 8.4509H48.9834L44.7569 21.3956ZM63.2211 6.62769V0.793437H91.0167V6.62769H80.6244V34.7382H73.6465V6.62769H63.2211ZM101.458 0.793437L108.353 12.4619H108.618L115.579 0.793437H123.552L113.176 17.7658L123.784 34.7382H115.662L108.618 23.0697H108.353L101.325 34.7382H93.2368L103.878 17.7658L93.4191 0.793437H101.458ZM134.398 0.793437V34.7382H127.354V0.793437H134.398Z" fill="url(#paint0_linear_705_1333)"/>
<defs>
<linearGradient id="paint0_linear_705_1333" x1="68.25" y1="-12.2618" x2="68.25" y2="45.7382" gradientUnits="userSpaceOnUse">
<stop stop-color="#9747FF"/>
<stop offset="1" stop-color="#7424F5"/>
</linearGradient>
</defs>
</svg>
