<svg width="205" height="59" viewBox="0 0 205 59" fill="none" xmlns="http://www.w3.org/2000/svg">
<path d="M26.47 25.2336C25.8899 21.4711 23.0059 19.1838 19.0611 19.1838C13.7738 19.1838 10.2766 23.228 10.2766 30.3717C10.2766 37.6976 13.8236 41.5595 19.028 41.5595C22.8733 41.5595 25.7738 39.438 26.47 35.7916L33.597 35.8247C32.8015 42.0899 27.5307 47.8081 18.912 47.8081C9.82908 47.8081 3.13295 41.4269 3.13295 30.3717C3.13295 19.2999 9.94511 12.9352 18.912 12.9352C26.7352 12.9352 32.6357 17.4269 33.597 25.2336H26.47ZM43.0763 47.3441H35.5183L47.2531 13.3993H56.3194L68.0542 47.3441H60.4962L57.9437 39.5209H45.6288L43.0763 47.3441ZM47.4188 34.0015H56.1371L51.9105 21.0568H51.6454L47.4188 34.0015ZM65.8831 19.2336V13.3993H93.6787V19.2336H83.2864V47.3441H76.3085V19.2336H65.8831ZM104.12 13.3993L111.015 25.0678H111.28L118.241 13.3993H126.214L115.838 30.3717L126.446 47.3441H118.324L111.28 35.6755H111.015L103.987 47.3441H95.8987L106.54 30.3717L96.0811 13.3993H104.12ZM137.06 13.3993V47.3441H130.016V13.3993H137.06Z" fill="url(#paint0_linear_742_1344)"/>
<rect x="146.088" y="25.3441" width="58" height="22" rx="11" fill="#7424F5"/>
<path d="M157.306 40.3441V33.9794H158.557V40.3441H157.306ZM157.148 32.2598C157.148 31.8496 157.504 31.5181 157.94 31.5181C158.366 31.5181 158.723 31.8496 158.723 32.2598C158.723 32.67 158.366 33.0015 157.94 33.0015C157.504 33.0015 157.148 32.67 157.148 32.2598ZM161.334 36.5692V40.3441H160.083V33.9794H161.285V35.0195H161.363C161.657 34.3399 162.283 33.8965 163.24 33.8965C164.546 33.8965 165.407 34.7253 165.407 36.2957V40.3441H164.156V36.449C164.156 35.5291 163.655 34.978 162.814 34.978C161.952 34.978 161.334 35.554 161.334 36.5692ZM175.703 34.6217C175.496 33.5319 174.588 32.9186 173.511 32.9186C172.048 32.9186 170.963 34.0457 170.963 36.101C170.963 38.1686 172.052 39.2833 173.511 39.2833C174.576 39.2833 175.479 38.6866 175.703 37.6092H177.004C176.735 39.2874 175.367 40.4601 173.499 40.4601C171.29 40.4601 169.682 38.8109 169.682 36.101C169.682 33.3869 171.298 31.7418 173.499 31.7418C175.297 31.7418 176.714 32.8026 177.004 34.6217H175.703ZM183.846 31.8579H185.143V37.4352C185.143 39.2211 183.801 40.4849 181.766 40.4849C179.728 40.4849 178.393 39.2211 178.393 37.4352V31.8579H179.682V37.3316C179.682 38.4836 180.482 39.3081 181.766 39.3081C183.055 39.3081 183.846 38.4836 183.846 37.3316V31.8579ZM186.866 40.3441V31.8579H188.155V35.9062H188.266L191.813 31.8579H193.434L190.015 35.6783L193.446 40.3441H191.888L189.162 36.5568L188.155 37.7128V40.3441H186.866Z" fill="#FAFAFA"/>
<defs>
<linearGradient id="paint0_linear_742_1344" x1="70.912" y1="0.344055" x2="70.912" y2="58.3441" gradientUnits="userSpaceOnUse">
<stop stop-color="#9747FF"/>
<stop offset="1" stop-color="#7424F5"/>
</linearGradient>
</defs>
</svg>
