<svg width="27" height="28" viewBox="0 0 27 28" fill="none" xmlns="http://www.w3.org/2000/svg">
<path fill-rule="evenodd" clip-rule="evenodd" d="M7.5 6.5C7.5 4.9087 8.13214 3.38258 9.25736 2.25736C10.3826 1.13214 11.9087 0.5 13.5 0.5C15.0913 0.5 16.6174 1.13214 17.7426 2.25736C18.8679 3.38258 19.5 4.9087 19.5 6.5C19.5 8.0913 18.8679 9.61742 17.7426 10.7426C16.6174 11.8679 15.0913 12.5 13.5 12.5C11.9087 12.5 10.3826 11.8679 9.25736 10.7426C8.13214 9.61742 7.5 8.0913 7.5 6.5ZM7.5 15.5C5.51088 15.5 3.60322 16.2902 2.1967 17.6967C0.790176 19.1032 0 21.0109 0 23C0 24.1935 0.474106 25.3381 1.31802 26.182C2.16193 27.0259 3.30653 27.5 4.5 27.5H22.5C23.6935 27.5 24.8381 27.0259 25.682 26.182C26.5259 25.3381 27 24.1935 27 23C27 21.0109 26.2098 19.1032 24.8033 17.6967C23.3968 16.2902 21.4891 15.5 19.5 15.5H7.5Z" fill="#222222"/>
</svg>
