<svg width="27" height="26" viewBox="0 0 27 26" fill="none" xmlns="http://www.w3.org/2000/svg">
<path d="M1.5 22C1.5 20.4087 2.13214 18.8826 3.25736 17.7574C4.38258 16.6321 5.9087 16 7.5 16H19.5C21.0913 16 22.6174 16.6321 23.7426 17.7574C24.8679 18.8826 25.5 20.4087 25.5 22C25.5 22.7956 25.1839 23.5587 24.6213 24.1213C24.0587 24.6839 23.2957 25 22.5 25H4.5C3.70435 25 2.94129 24.6839 2.37868 24.1213C1.81607 23.5587 1.5 22.7956 1.5 22Z" stroke="#9E9E9E" stroke-width="2" stroke-linejoin="round"/>
<path d="M13.5 10C15.9853 10 18 7.98528 18 5.5C18 3.01472 15.9853 1 13.5 1C11.0147 1 9 3.01472 9 5.5C9 7.98528 11.0147 10 13.5 10Z" stroke="#9E9E9E" stroke-width="2"/>
</svg>
