<svg width="25" height="25" viewBox="0 0 25 25" fill="none" xmlns="http://www.w3.org/2000/svg">
<path d="M14.6558 12.5276C14.6558 11.9309 14.4185 11.3588 13.9966 10.9368C13.5746 10.5149 13.0025 10.2776 12.4058 10.2776C11.809 10.2776 11.2369 10.5149 10.8149 10.9368C10.393 11.3588 10.1558 11.9309 10.1558 12.5276C10.1558 13.1244 10.393 13.6965 10.8149 14.1185C11.2369 14.5404 11.809 14.7776 12.4058 14.7776C13.0025 14.7776 13.5746 14.5404 13.9966 14.1185C14.4185 13.6965 14.6558 13.1244 14.6558 12.5276ZM16.1558 12.5276C16.1558 13.5222 15.7604 14.4758 15.0571 15.179C14.3539 15.8823 13.4003 16.2776 12.4058 16.2776C11.4112 16.2776 10.4577 15.8823 9.75439 15.179C9.05113 14.4758 8.65576 13.5222 8.65576 12.5276C8.65576 11.5331 9.05113 10.5795 9.75439 9.87628C10.4577 9.17302 11.4112 8.77765 12.4058 8.77765C13.4003 8.77765 14.3539 9.17302 15.0571 9.87628C15.7604 10.5795 16.1558 11.5331 16.1558 12.5276Z" fill="#424242"/>
<path d="M12.4058 4.77765C17.4089 4.77765 21.403 7.89963 23.104 12.2552C23.1724 12.4305 23.1724 12.6248 23.104 12.8001C21.403 17.1557 17.4089 20.2776 12.4058 20.2776C7.40265 20.2776 3.4085 17.1557 1.70753 12.8001C1.63912 12.6248 1.63912 12.4305 1.70753 12.2552C3.4085 7.89963 7.40265 4.77765 12.4058 4.77765ZM12.4058 6.27765C8.18414 6.27765 4.77016 8.83549 3.21534 12.5276C4.77016 16.2198 8.18414 18.7776 12.4058 18.7776C16.6273 18.7776 20.0403 16.2196 21.5952 12.5276C20.0403 8.83568 16.6273 6.27765 12.4058 6.27765Z" fill="#424242"/>
</svg>
