<svg width="13" height="12" viewBox="0 0 13 12" fill="none" xmlns="http://www.w3.org/2000/svg">
<path d="M6.50001 1.1665C5.86528 1.1665 5.23678 1.29152 4.65037 1.53442C4.06396 1.77732 3.53114 2.13334 3.08232 2.58215C2.63351 3.03097 2.27749 3.56379 2.03459 4.1502C1.79169 4.73661 1.66667 5.36512 1.66667 5.99984C1.66667 6.63456 1.79169 7.26307 2.03459 7.84947C2.27749 8.43588 2.63351 8.9687 3.08232 9.41752C3.53114 9.86634 4.06396 10.2224 4.65037 10.4653C5.23678 10.7082 5.86528 10.8332 6.50001 10.8332C7.78189 10.8332 9.01126 10.3239 9.91769 9.41752C10.8241 8.51109 11.3333 7.28172 11.3333 5.99984C11.3333 4.71796 10.8241 3.48858 9.91769 2.58215C9.01126 1.67573 7.78189 1.1665 6.50001 1.1665ZM0.666672 5.99984C0.666672 4.45274 1.28125 2.96901 2.37522 1.87505C3.46918 0.781085 4.95291 0.166504 6.50001 0.166504C8.0471 0.166504 9.53083 0.781085 10.6248 1.87505C11.7188 2.96901 12.3333 4.45274 12.3333 5.99984C12.3333 7.54693 11.7188 9.03067 10.6248 10.1246C9.53083 11.2186 8.0471 11.8332 6.50001 11.8332C4.95291 11.8332 3.46918 11.2186 2.37522 10.1246C1.28125 9.03067 0.666672 7.54693 0.666672 5.99984ZM6.50001 2.83317C6.63261 2.83317 6.75979 2.88585 6.85356 2.97962C6.94733 3.07339 7.00001 3.20056 7.00001 3.33317V5.79317L8.18667 6.97984C8.2358 7.02561 8.2752 7.08081 8.30253 7.14215C8.32985 7.20348 8.34455 7.26969 8.34573 7.33682C8.34692 7.40396 8.33457 7.47064 8.30942 7.5329C8.28427 7.59516 8.24684 7.65172 8.19936 7.6992C8.15188 7.74668 8.09533 7.78411 8.03307 7.80925C7.97081 7.8344 7.90413 7.84675 7.83699 7.84557C7.76986 7.84438 7.70365 7.82969 7.64231 7.80236C7.58098 7.77503 7.52578 7.73563 7.48001 7.6865L6.14667 6.35317C6.05288 6.25949 6.00012 6.1324 6.00001 5.99984V3.33317C6.00001 3.20056 6.05268 3.07339 6.14645 2.97962C6.24022 2.88585 6.3674 2.83317 6.50001 2.83317Z" fill="#424242"/>
</svg>
