<svg width="161" height="160" viewBox="0 0 161 160" fill="none" xmlns="http://www.w3.org/2000/svg">
<g clip-path="url(#clip0_844_1336)">
<path d="M129.395 85.9C128.895 85.05 127.695 85.14 126.755 85.09C123.375 85.09 117.435 85.05 114.615 85.12C113.725 85.17 112.875 85.35 112.255 85.94L112.165 86.03C110.155 88.84 108.525 92.81 105.935 95.4C101.735 100.18 96.115 103.69 89.955 105.34C69.505 111.11 48.385 95.11 48.635 73.82C48.185 49.43 75.895 33.2 96.965 45.1C100.915 47.24 104.365 50.16 107.125 53.67C109.235 56.03 109.775 59.07 112.925 59.39C116.525 59.54 122.755 59.45 126.235 59.44C127.745 59.46 128.755 58.87 128.125 57.16C126.875 53.62 125.195 50.28 123.165 47.19C125.325 39.55 125.015 26.34 124.885 21.29C124.765 19.78 124.375 17.71 123.125 17.12C122.645 16.87 122.055 16.87 121.515 16.93C118.885 17.39 116.115 19.3 113.605 20.72C110.235 22.73 106.905 24.63 103.665 26.68C102.785 27.23 101.795 27.92 100.995 28.67C94.395 25.82 87.185 24.37 79.895 24.66C73.265 24.81 67.125 26.22 61.585 28.6C60.805 27.88 59.855 27.22 58.995 26.68C55.755 24.63 52.425 22.73 49.055 20.72C46.545 19.29 43.765 17.39 41.145 16.93C40.615 16.86 40.015 16.87 39.535 17.12C38.275 17.7 37.895 19.78 37.775 21.29C37.645 26.4 37.335 39.88 39.575 47.47C28.715 64.46 27.875 87.72 42.495 105.63C51.975 116.25 67.495 131.52 76.385 140.86C78.825 143.92 83.985 143.86 86.395 140.76C91.425 135.49 103.415 123.42 108.815 117.68C111.495 114.8 115.255 111.15 118.075 108.09C122.945 102.8 126.775 96.3 128.965 89.24C129.305 88.04 129.755 86.95 129.375 85.92L129.395 85.9Z" fill="url(#paint0_linear_844_1336)"/>
<path d="M68.3959 76.3989C71.4869 75.8972 73.5859 72.9847 73.0841 69.8937C72.5824 66.8027 69.6699 64.7037 66.5789 65.2054C63.4879 65.7072 61.3889 68.6196 61.8907 71.7106C62.3924 74.8016 65.3049 76.9006 68.3959 76.3989Z" fill="url(#paint1_linear_844_1336)"/>
<path d="M94.8119 76.3233C97.8596 75.6039 99.7471 72.5501 99.0278 69.5024C98.3085 66.4547 95.2547 64.5672 92.2069 65.2865C89.1592 66.0058 87.2717 69.0596 87.991 72.1073C88.7103 75.1551 91.7641 77.0426 94.8119 76.3233Z" fill="url(#paint2_linear_844_1336)"/>
</g>
<defs>
<linearGradient id="paint0_linear_844_1336" x1="80.505" y1="143.11" x2="80.505" y2="16.89" gradientUnits="userSpaceOnUse">
<stop stop-color="#9960FF"/>
<stop offset="0.5" stop-color="#7424F5"/>
<stop offset="1" stop-color="#9960FF"/>
</linearGradient>
<linearGradient id="paint1_linear_844_1336" x1="67.4851" y1="76.4774" x2="67.4851" y2="65.1374" gradientUnits="userSpaceOnUse">
<stop stop-color="#9960FF"/>
<stop offset="0.5" stop-color="#7424F5"/>
<stop offset="1" stop-color="#9960FF"/>
</linearGradient>
<linearGradient id="paint2_linear_844_1336" x1="93.5167" y1="76.4751" x2="93.5167" y2="65.1351" gradientUnits="userSpaceOnUse">
<stop stop-color="#9960FF"/>
<stop offset="0.5" stop-color="#7424F5"/>
<stop offset="1" stop-color="#9960FF"/>
</linearGradient>
<clipPath id="clip0_844_1336">
<rect width="98.07" height="126.22" fill="white" transform="translate(31.465 16.89)"/>
</clipPath>
</defs>
</svg>
